<svg width="24" height="24" viewBox="0 0 32 32" fill="none" xmlns="http://www.w3.org/2000/svg">
<path d="M22.6712 1.4874C21.1792 1.4874 19.7532 1.82943 18.4329 2.50407C17.5341 2.96322 16.7084 3.57327 16 4.29706C15.2916 3.57327 14.4659 2.96322 13.5671 2.50407C12.2468 1.82943 10.8208 1.4874 9.32876 1.4874C4.18488 1.4874 0 5.67227 0 10.8162C0 14.4595 1.92409 18.329 5.71896 22.3173C8.88742 25.6473 12.7666 28.4232 15.4629 30.1655L16.0001 30.5127L16.5372 30.1655C19.2335 28.4233 23.1126 25.6473 26.2812 22.3173C30.0759 18.329 32 14.4595 32 10.8162C32 5.67227 27.8151 1.4874 22.6712 1.4874ZM7.15289 20.9528C3.72005 17.3449 1.97938 13.9345 1.97938 10.8162C1.97938 6.7637 5.27631 3.46678 9.32876 3.46678C11.4039 3.46678 13.3284 4.31521 14.7164 5.81749L13.5172 7.28065L15.9237 10.2171L13.5173 13.1537L15.9237 16.0903L13.5173 19.0272L15.9237 21.9638L13.5173 24.9006L15.9286 27.8433L15.7914 28.014C13.2491 26.3227 9.90865 23.8492 7.15289 20.9528ZM24.8471 20.9528C22.6224 23.2911 20.0165 25.3537 17.7571 26.9517L16.0763 24.9006L18.4827 21.964L16.0763 19.0273L18.4827 16.0904L16.0763 13.1538L18.4828 10.2172L16.1069 7.31813L16.7913 6.40708C18.1949 4.53855 20.3381 3.46684 22.6712 3.46684C26.7237 3.46684 30.0206 6.76377 30.0206 10.8162C30.0206 13.9345 28.28 17.3449 24.8471 20.9528Z" fill="#282C34"/>
</svg>
